General
Complete name                            : E:\Mona_PowerMac_and_VPC\VP_trip_DV_transfers\VP_trip_6_117\VP_trip_6_117.dv
Format                                   : DV
File size                                : 6.11 GiB
Duration                                 : 30 min 23 s
Overall bit rate mode                    : Constant
Overall bit rate                         : 28.8 Mb/s
Frame rate                               : 29.970 FPS

Video
Format                                   : DV
Duration                                 : 30 min 23 s
Bit rate mode                            : Constant
Bit rate                                 : 24.4 Mb/s
Width                                    : 720 pixels
Height                                   : 480 pixels
Display aspect ratio                     : 4:3
Frame rate mode                          : Constant
Frame rate                               : 29.970 (29970/1000) FPS
Standard                                 : NTSC
Color space                              : YUV
Chroma subsampling                       : 4:1:1
Bit depth                                : 8 bits
Scan type                                : Interlaced
Scan order                               : Bottom Field First
Compression mode                         : Lossy
Bits/(Pixel*Frame)                       : 2.357
Time code of first frame                 : 00:48:40;21
Time code source                         : Subcode time code
Stream size                              : 5.18 GiB (85%)

Audio
ID                                       : 0
Format                                   : PCM
Format settings                          : Big / Signed
Duration                                 : 30 min 23 s
Bit rate mode                            : Constant
Bit rate                                 : 1 536 kb/s
Channel(s)                               : 2 channels
Sampling rate                            : 48.0 kHz
Bit depth                                : 16 bits
Stream size                              : 334 MiB (5%)

